<?xml version="1.0" encoding="utf-8" standalone="no"?>
<!DOCTYPE svg PUBLIC "-//W3C//DTD SVG 1.1//EN"
  "http://www.w3.org/Graphics/SVG/1.1/DTD/svg11.dtd">
<svg xmlns:xlink="http://www.w3.org/1999/xlink" width="288pt" height="351.242854pt" viewBox="0 0 288 351.242854" xmlns="http://www.w3.org/2000/svg" version="1.1">
 <metadata>
  <rdf:RDF xmlns:dc="http://purl.org/dc/elements/1.1/" xmlns:cc="http://creativecommons.org/ns#" xmlns:rdf="http://www.w3.org/1999/02/22-rdf-syntax-ns#">
   <cc:Work>
    <dc:type rdf:resource="http://purl.org/dc/dcmitype/StillImage"/>
    <dc:date>2024-02-10T13:30:18.305429</dc:date>
    <dc:format>image/svg+xml</dc:format>
    <dc:creator>
     <cc:Agent>
      <dc:title>Matplotlib v3.8.2, https://matplotlib.org/</dc:title>
     </cc:Agent>
    </dc:creator>
   </cc:Work>
  </rdf:RDF>
 </metadata>
 <defs>
  <style type="text/css">*{stroke-linejoin: round; stroke-linecap: butt}</style>
 </defs>
 <g id="figure_1">
  <g id="patch_1">
   <path d="M 0 351.242854 
L 288 351.242854 
L 288 0 
L 0 0 
z
" style="fill: #ffffff"/>
  </g>
  <g id="axes_1">
   <g id="patch_2">
    <path d="M 0 351.242854 
L 288 351.242854 
L 288 0 
L 0 0 
z
" style="fill: #212830"/>
   </g>
   <g id="patch_3">
    <path d="M 13.090909 132.786933 
L 168.852707 132.786933 
L 168.852707 15.965584 
L 13.090909 15.965584 
L 13.090909 132.786933 
" clip-path="url(#p32ab649acd)" style="fill: none; stroke: #ffffff; stroke-width: 0.72; stroke-linejoin: miter"/>
   </g>
   <g id="patch_4">
    <path d="M 16.984954 128.892888 
L 164.958662 128.892888 
L 164.958662 19.859629 
L 16.984954 19.859629 
L 16.984954 128.892888 
" clip-path="url(#p32ab649acd)" style="fill: none; stroke: #ffffff; stroke-width: 0.72; stroke-linejoin: miter"/>
   </g>
   <g id="patch_5">
    <path d="M 112.962942 74.318608 
L 112.962942 66.588168 
L 112.78999 66.588168 
L 112.78999 71.53565 
L 110.331972 69.077632 
L 108.9798 69.077632 
L 107.638111 70.419322 
L 107.638111 73.060773 
L 108.9798 74.397222 
L 110.331972 74.397222 
L 112.78999 71.944446 
L 112.78999 74.318608 
L 112.962942 74.318608 
M 97.502064 73.060773 
L 97.502064 71.708602 
L 96.244229 70.450768 
L 97.502064 69.198174 
L 97.502064 67.846003 
L 96.160374 66.504313 
L 92.261088 66.504313 
L 92.261088 66.672024 
L 93.466512 66.672024 
L 93.466512 74.229511 
L 92.261088 74.229511 
L 92.261088 74.397222 
L 96.160374 74.397222 
L 97.502064 73.060773 
M 105.263949 70.450768 
L 103.890813 69.077632 
L 101.249361 69.077632 
L 99.907671 70.419322 
L 99.907671 73.060773 
L 101.249361 74.397222 
L 103.854126 74.397222 
L 103.854126 74.229511 
L 101.312253 74.229511 
L 100.080624 72.997882 
L 100.080624 71.823903 
L 103.890813 71.823903 
L 105.263949 70.450768 
M 136.154259 73.060773 
L 136.154259 70.419322 
L 134.81257 69.077632 
L 132.171118 69.077632 
L 130.829428 70.419322 
L 130.829428 73.060773 
L 132.171118 74.397222 
L 134.81257 74.397222 
L 136.154259 73.060773 
M 128.42382 73.060773 
L 128.42382 70.419322 
L 127.08213 69.077632 
L 124.440679 69.077632 
L 123.098989 70.419322 
L 123.098989 73.060773 
L 124.440679 74.397222 
L 127.08213 74.397222 
L 128.42382 73.060773 
M 143.884699 74.318608 
L 143.884699 70.419322 
L 142.506322 69.046186 
L 141.222283 70.335466 
L 139.933003 69.046186 
L 138.732819 70.24637 
L 138.732819 69.166729 
L 138.559867 69.166729 
L 138.559867 74.318608 
L 138.732819 74.318608 
L 138.732819 70.482213 
L 139.933003 69.28203 
L 141.133186 70.482213 
L 141.133186 71.740048 
L 141.306138 71.740048 
L 141.306138 70.482213 
L 142.506322 69.28203 
L 143.711746 70.482213 
L 143.711746 74.318608 
L 143.884699 74.318608 
M 120.667176 70.387876 
L 119.351691 69.077632 
L 117.99952 69.077632 
L 115.541502 71.53565 
L 115.541502 69.166729 
L 115.36855 69.166729 
L 115.36855 74.318608 
L 115.541502 74.318608 
L 115.541502 71.771493 
L 118.062411 69.250584 
L 119.283559 69.250584 
L 120.541393 70.5189 
L 120.667176 70.387876 
M 112.758544 71.740048 
L 110.26908 74.229511 
L 109.042692 74.229511 
L 107.811063 72.997882 
L 107.811063 70.482213 
L 109.042692 69.250584 
L 110.26908 69.250584 
L 112.758544 71.740048 
M 97.329111 69.130042 
L 96.092241 70.366912 
L 93.634224 70.366912 
L 93.634224 66.672024 
L 96.092241 66.672024 
L 97.329111 67.908894 
L 97.329111 69.130042 
M 97.329111 72.997882 
L 96.092241 74.229511 
L 93.634224 74.229511 
L 93.634224 70.539864 
L 96.092241 70.539864 
L 97.329111 71.771493 
L 97.329111 72.997882 
M 105.028105 70.450768 
L 103.82268 71.656192 
L 100.080624 71.656192 
L 100.080624 70.482213 
L 101.312253 69.250584 
L 103.82268 69.250584 
L 105.028105 70.450768 
M 135.981307 72.997882 
L 134.744437 74.229511 
L 132.23401 74.229511 
L 131.00238 72.997882 
L 131.00238 70.482213 
L 132.23401 69.250584 
L 134.744437 69.250584 
L 135.981307 70.482213 
L 135.981307 72.997882 
M 128.250868 72.997882 
L 127.013998 74.229511 
L 124.50357 74.229511 
L 123.271941 72.997882 
L 123.271941 70.482213 
L 124.50357 69.250584 
L 127.013998 69.250584 
L 128.250868 70.482213 
L 128.250868 72.997882 
" clip-path="url(#p32ab649acd)" style="fill: #ffffff"/>
   </g>
   <g id="patch_6">
    <path d="M 172.746752 132.786933 
L 250.627651 132.786933 
L 250.627651 54.906034 
L 172.746752 54.906034 
L 172.746752 132.786933 
" clip-path="url(#p32ab649acd)" style="fill: none; stroke: #ffffff; stroke-width: 0.72; stroke-linejoin: miter"/>
   </g>
   <g id="patch_7">
    <path d="M 176.640797 128.892888 
L 246.733606 128.892888 
L 246.733606 58.800079 
L 176.640797 58.800079 
L 176.640797 128.892888 
" clip-path="url(#p32ab649acd)" style="fill: none; stroke: #ffffff; stroke-width: 0.72; stroke-linejoin: miter"/>
   </g>
   <g id="patch_8">
    <path d="M 220.790776 86.089839 
L 220.617824 86.026947 
L 218.12836 93.516302 
L 216.83908 89.653703 
L 215.555041 93.516302 
L 213.065578 86.026947 
L 212.892626 86.089839 
L 215.465945 93.788832 
L 215.644138 93.788832 
L 216.83908 90.193523 
L 218.039264 93.788832 
L 218.217457 93.788832 
L 220.790776 86.089839 
M 243.987334 93.788832 
L 243.987334 89.889546 
L 242.645645 88.547857 
L 241.293473 88.547857 
L 238.835455 91.005874 
L 238.835455 86.058393 
L 238.662503 86.058393 
L 238.662503 93.788832 
L 238.835455 93.788832 
L 238.835455 91.241718 
L 241.356365 88.720809 
L 242.577512 88.720809 
L 243.814382 89.952438 
L 243.814382 93.788832 
L 243.987334 93.788832 
M 236.288341 92.499552 
L 234.915205 91.126417 
L 232.336645 91.126417 
L 231.136462 89.920992 
L 232.336645 88.720809 
L 236.167799 88.720809 
L 236.167799 88.547857 
L 232.273754 88.547857 
L 230.900618 89.920992 
L 232.273754 91.294128 
L 234.847073 91.294128 
L 236.052497 92.499552 
L 234.847073 93.699736 
L 231.015919 93.699736 
L 231.015919 93.867447 
L 234.915205 93.867447 
L 236.288341 92.499552 
M 267.178652 92.530998 
L 267.178652 89.889546 
L 265.836962 88.547857 
L 263.19551 88.547857 
L 261.85382 89.889546 
L 261.85382 92.530998 
L 263.19551 93.867447 
L 265.836962 93.867447 
L 267.178652 92.530998 
M 259.448213 92.530998 
L 259.448213 89.889546 
L 258.106523 88.547857 
L 255.465071 88.547857 
L 254.123381 89.889546 
L 254.123381 92.530998 
L 255.465071 93.867447 
L 258.106523 93.867447 
L 259.448213 92.530998 
M 228.500251 93.7207 
L 227.237176 92.468106 
L 227.237176 89.889546 
L 225.895486 88.547857 
L 224.543314 88.547857 
L 223.201625 89.889546 
L 223.201625 92.530998 
L 224.543314 93.867447 
L 225.895486 93.867447 
L 227.148079 92.614854 
L 228.374468 93.846483 
L 228.500251 93.7207 
M 274.909091 93.788832 
L 274.909091 89.889546 
L 273.530714 88.516411 
L 272.246675 89.805691 
L 270.957395 88.516411 
L 269.757212 89.716594 
L 269.757212 88.636953 
L 269.58426 88.636953 
L 269.58426 93.788832 
L 269.757212 93.788832 
L 269.757212 89.952438 
L 270.957395 88.752255 
L 272.157579 89.952438 
L 272.157579 91.210272 
L 272.330531 91.210272 
L 272.330531 89.952438 
L 273.530714 88.752255 
L 274.736139 89.952438 
L 274.736139 93.788832 
L 274.909091 93.788832 
M 251.691569 89.858101 
L 250.376084 88.547857 
L 249.023912 88.547857 
L 246.565894 91.005874 
L 246.565894 88.636953 
L 246.392942 88.636953 
L 246.392942 93.788832 
L 246.565894 93.788832 
L 246.565894 91.241718 
L 249.086804 88.720809 
L 250.307951 88.720809 
L 251.565785 89.989125 
L 251.691569 89.858101 
M 267.0057 92.468106 
L 265.768829 93.699736 
L 263.258402 93.699736 
L 262.026773 92.468106 
L 262.026773 89.952438 
L 263.258402 88.720809 
L 265.768829 88.720809 
L 267.0057 89.952438 
L 267.0057 92.468106 
M 259.27526 92.468106 
L 258.03839 93.699736 
L 255.527963 93.699736 
L 254.296334 92.468106 
L 254.296334 89.952438 
L 255.527963 88.720809 
L 258.03839 88.720809 
L 259.27526 89.952438 
L 259.27526 92.468106 
M 227.064224 92.468106 
L 225.832595 93.699736 
L 224.606206 93.699736 
L 223.374577 92.468106 
L 223.374577 89.952438 
L 224.606206 88.720809 
L 225.832595 88.720809 
L 227.064224 89.952438 
L 227.064224 92.468106 
" clip-path="url(#p32ab649acd)" style="fill: #ffffff"/>
   </g>
   <g id="patch_9">
    <path d="M 13.090909 214.561876 
L 129.912257 214.561876 
L 129.912257 136.680977 
L 13.090909 136.680977 
L 13.090909 214.561876 
" clip-path="url(#p32ab649acd)" style="fill: none; stroke: #ffffff; stroke-width: 0.72; stroke-linejoin: miter"/>
   </g>
   <g id="patch_10">
    <path d="M 16.984954 210.667831 
L 126.018212 210.667831 
L 126.018212 140.575022 
L 16.984954 140.575022 
L 16.984954 210.667831 
" clip-path="url(#p32ab649acd)" style="fill: none; stroke: #ffffff; stroke-width: 0.72; stroke-linejoin: miter"/>
   </g>
   <g id="patch_11">
    <path d="M 78.005634 175.495643 
L 74.195445 171.695936 
L 78.005634 167.896229 
L 77.879851 167.770445 
L 74.048697 171.61208 
L 72.87996 171.61208 
L 72.87996 167.833337 
L 72.707008 167.833337 
L 72.707008 175.563776 
L 72.87996 175.563776 
L 72.87996 171.785033 
L 74.048697 171.785033 
L 77.879851 175.621427 
L 78.005634 175.495643 
M 103.801716 175.563776 
L 103.801716 171.66449 
L 102.460027 170.3228 
L 101.107855 170.3228 
L 98.649837 172.780818 
L 98.649837 167.833337 
L 98.476885 167.833337 
L 98.476885 175.563776 
L 98.649837 175.563776 
L 98.649837 173.016662 
L 101.170747 170.495753 
L 102.391894 170.495753 
L 103.628764 171.727382 
L 103.628764 175.563776 
L 103.801716 175.563776 
M 88.314633 174.337388 
L 88.18885 174.211604 
L 86.962462 175.443234 
L 85.762278 174.24305 
L 85.762278 170.495753 
L 88.251742 170.495753 
L 88.251742 170.3228 
L 85.762278 170.3228 
L 85.762278 167.833337 
L 85.589326 167.833337 
L 85.589326 170.3228 
L 83.099862 170.3228 
L 83.099862 170.495753 
L 85.589326 170.495753 
L 85.589326 174.305942 
L 86.962462 175.673837 
L 88.314633 174.337388 
M 111.563601 171.695936 
L 110.190466 170.3228 
L 107.549014 170.3228 
L 106.207324 171.66449 
L 106.207324 174.305942 
L 107.549014 175.642391 
L 110.153779 175.642391 
L 110.153779 175.47468 
L 107.611906 175.47468 
L 106.380276 174.24305 
L 106.380276 173.069072 
L 110.190466 173.069072 
L 111.563601 171.695936 
M 119.262595 175.563776 
L 119.262595 171.66449 
L 117.920905 170.3228 
L 116.568733 170.3228 
L 114.110716 172.780818 
L 114.110716 170.411897 
L 113.937763 170.411897 
L 113.937763 175.563776 
L 114.110716 175.563776 
L 114.110716 173.016662 
L 116.631625 170.495753 
L 117.852772 170.495753 
L 119.089643 171.727382 
L 119.089643 175.563776 
L 119.262595 175.563776 
M 95.982181 175.642391 
L 95.982181 175.47468 
L 92.151027 175.47468 
L 90.919398 174.24305 
L 90.919398 171.727382 
L 92.151027 170.495753 
L 95.982181 170.495753 
L 95.982181 170.3228 
L 92.088136 170.3228 
L 90.746446 171.66449 
L 90.746446 174.305942 
L 92.088136 175.642391 
L 95.982181 175.642391 
M 80.610399 175.563776 
L 80.610399 170.411897 
L 80.437447 170.411897 
L 80.437447 175.563776 
L 80.610399 175.563776 
M 80.610399 169.122617 
L 80.610399 167.833337 
L 80.437447 167.833337 
L 80.437447 169.122617 
L 80.610399 169.122617 
M 111.327758 171.695936 
L 110.122333 172.90136 
L 106.380276 172.90136 
L 106.380276 171.727382 
L 107.611906 170.495753 
L 110.122333 170.495753 
L 111.327758 171.695936 
" clip-path="url(#p32ab649acd)" style="fill: #ffffff"/>
   </g>
   <g id="patch_12">
    <path d="M 13.090909 335.277269 
L 168.852707 335.277269 
L 168.852707 218.455921 
L 13.090909 218.455921 
L 13.090909 335.277269 
" clip-path="url(#p32ab649acd)" style="fill: none; stroke: #ffffff; stroke-width: 0.72; stroke-linejoin: miter"/>
   </g>
   <g id="patch_13">
    <path d="M 16.984954 331.383225 
L 164.958662 331.383225 
L 164.958662 222.349966 
L 16.984954 222.349966 
L 16.984954 331.383225 
" clip-path="url(#p32ab649acd)" style="fill: none; stroke: #ffffff; stroke-width: 0.72; stroke-linejoin: miter"/>
   </g>
   <g id="patch_14">
    <path d="M 112.962942 276.808945 
L 112.962942 269.078505 
L 112.78999 269.078505 
L 112.78999 274.025987 
L 110.331972 271.567969 
L 108.9798 271.567969 
L 107.638111 272.909659 
L 107.638111 275.55111 
L 108.9798 276.887559 
L 110.331972 276.887559 
L 112.78999 274.434783 
L 112.78999 276.808945 
L 112.962942 276.808945 
M 97.502064 275.55111 
L 97.502064 274.198939 
L 96.244229 272.941105 
L 97.502064 271.688511 
L 97.502064 270.33634 
L 96.160374 268.99465 
L 92.261088 268.99465 
L 92.261088 269.162361 
L 93.466512 269.162361 
L 93.466512 276.719848 
L 92.261088 276.719848 
L 92.261088 276.887559 
L 96.160374 276.887559 
L 97.502064 275.55111 
M 105.263949 272.941105 
L 103.890813 271.567969 
L 101.249361 271.567969 
L 99.907671 272.909659 
L 99.907671 275.55111 
L 101.249361 276.887559 
L 103.854126 276.887559 
L 103.854126 276.719848 
L 101.312253 276.719848 
L 100.080624 275.488219 
L 100.080624 274.31424 
L 103.890813 274.31424 
L 105.263949 272.941105 
M 136.154259 275.55111 
L 136.154259 272.909659 
L 134.81257 271.567969 
L 132.171118 271.567969 
L 130.829428 272.909659 
L 130.829428 275.55111 
L 132.171118 276.887559 
L 134.81257 276.887559 
L 136.154259 275.55111 
M 128.42382 275.55111 
L 128.42382 272.909659 
L 127.08213 271.567969 
L 124.440679 271.567969 
L 123.098989 272.909659 
L 123.098989 275.55111 
L 124.440679 276.887559 
L 127.08213 276.887559 
L 128.42382 275.55111 
M 143.884699 276.808945 
L 143.884699 272.909659 
L 142.506322 271.536523 
L 141.222283 272.825803 
L 139.933003 271.536523 
L 138.732819 272.736706 
L 138.732819 271.657065 
L 138.559867 271.657065 
L 138.559867 276.808945 
L 138.732819 276.808945 
L 138.732819 272.97255 
L 139.933003 271.772367 
L 141.133186 272.97255 
L 141.133186 274.230385 
L 141.306138 274.230385 
L 141.306138 272.97255 
L 142.506322 271.772367 
L 143.711746 272.97255 
L 143.711746 276.808945 
L 143.884699 276.808945 
M 120.667176 272.878213 
L 119.351691 271.567969 
L 117.99952 271.567969 
L 115.541502 274.025987 
L 115.541502 271.657065 
L 115.36855 271.657065 
L 115.36855 276.808945 
L 115.541502 276.808945 
L 115.541502 274.26183 
L 118.062411 271.740921 
L 119.283559 271.740921 
L 120.541393 273.009237 
L 120.667176 272.878213 
M 112.758544 274.230385 
L 110.26908 276.719848 
L 109.042692 276.719848 
L 107.811063 275.488219 
L 107.811063 272.97255 
L 109.042692 271.740921 
L 110.26908 271.740921 
L 112.758544 274.230385 
M 97.329111 271.620379 
L 96.092241 272.857249 
L 93.634224 272.857249 
L 93.634224 269.162361 
L 96.092241 269.162361 
L 97.329111 270.399231 
L 97.329111 271.620379 
M 97.329111 275.488219 
L 96.092241 276.719848 
L 93.634224 276.719848 
L 93.634224 273.030201 
L 96.092241 273.030201 
L 97.329111 274.26183 
L 97.329111 275.488219 
M 105.028105 272.941105 
L 103.82268 274.146529 
L 100.080624 274.146529 
L 100.080624 272.97255 
L 101.312253 271.740921 
L 103.82268 271.740921 
L 105.028105 272.941105 
M 135.981307 275.488219 
L 134.744437 276.719848 
L 132.23401 276.719848 
L 131.00238 275.488219 
L 131.00238 272.97255 
L 132.23401 271.740921 
L 134.744437 271.740921 
L 135.981307 272.97255 
L 135.981307 275.488219 
M 128.250868 275.488219 
L 127.013998 276.719848 
L 124.50357 276.719848 
L 123.271941 275.488219 
L 123.271941 272.97255 
L 124.50357 271.740921 
L 127.013998 271.740921 
L 128.250868 272.97255 
L 128.250868 275.488219 
" clip-path="url(#p32ab649acd)" style="fill: #ffffff"/>
   </g>
   <g id="patch_15">
    <path d="M 172.746752 335.277269 
L 250.627651 335.277269 
L 250.627651 257.396371 
L 172.746752 257.396371 
L 172.746752 335.277269 
" clip-path="url(#p32ab649acd)" style="fill: none; stroke: #ffffff; stroke-width: 0.72; stroke-linejoin: miter"/>
   </g>
   <g id="patch_16">
    <path d="M 176.640797 331.383225 
L 246.733606 331.383225 
L 246.733606 261.290416 
L 176.640797 261.290416 
L 176.640797 331.383225 
" clip-path="url(#p32ab649acd)" style="fill: none; stroke: #ffffff; stroke-width: 0.72; stroke-linejoin: miter"/>
   </g>
   <g id="patch_17">
    <path d="M 220.790776 288.580176 
L 220.617824 288.517284 
L 218.12836 296.006639 
L 216.83908 292.144039 
L 215.555041 296.006639 
L 213.065578 288.517284 
L 212.892626 288.580176 
L 215.465945 296.279169 
L 215.644138 296.279169 
L 216.83908 292.68386 
L 218.039264 296.279169 
L 218.217457 296.279169 
L 220.790776 288.580176 
M 243.987334 296.279169 
L 243.987334 292.379883 
L 242.645645 291.038194 
L 241.293473 291.038194 
L 238.835455 293.496211 
L 238.835455 288.54873 
L 238.662503 288.54873 
L 238.662503 296.279169 
L 238.835455 296.279169 
L 238.835455 293.732055 
L 241.356365 291.211146 
L 242.577512 291.211146 
L 243.814382 292.442775 
L 243.814382 296.279169 
L 243.987334 296.279169 
M 236.288341 294.989889 
L 234.915205 293.616754 
L 232.336645 293.616754 
L 231.136462 292.411329 
L 232.336645 291.211146 
L 236.167799 291.211146 
L 236.167799 291.038194 
L 232.273754 291.038194 
L 230.900618 292.411329 
L 232.273754 293.784465 
L 234.847073 293.784465 
L 236.052497 294.989889 
L 234.847073 296.190073 
L 231.015919 296.190073 
L 231.015919 296.357784 
L 234.915205 296.357784 
L 236.288341 294.989889 
M 267.178652 295.021335 
L 267.178652 292.379883 
L 265.836962 291.038194 
L 263.19551 291.038194 
L 261.85382 292.379883 
L 261.85382 295.021335 
L 263.19551 296.357784 
L 265.836962 296.357784 
L 267.178652 295.021335 
M 259.448213 295.021335 
L 259.448213 292.379883 
L 258.106523 291.038194 
L 255.465071 291.038194 
L 254.123381 292.379883 
L 254.123381 295.021335 
L 255.465071 296.357784 
L 258.106523 296.357784 
L 259.448213 295.021335 
M 228.500251 296.211037 
L 227.237176 294.958443 
L 227.237176 292.379883 
L 225.895486 291.038194 
L 224.543314 291.038194 
L 223.201625 292.379883 
L 223.201625 295.021335 
L 224.543314 296.357784 
L 225.895486 296.357784 
L 227.148079 295.105191 
L 228.374468 296.33682 
L 228.500251 296.211037 
M 274.909091 296.279169 
L 274.909091 292.379883 
L 273.530714 291.006748 
L 272.246675 292.296028 
L 270.957395 291.006748 
L 269.757212 292.206931 
L 269.757212 291.12729 
L 269.58426 291.12729 
L 269.58426 296.279169 
L 269.757212 296.279169 
L 269.757212 292.442775 
L 270.957395 291.242592 
L 272.157579 292.442775 
L 272.157579 293.700609 
L 272.330531 293.700609 
L 272.330531 292.442775 
L 273.530714 291.242592 
L 274.736139 292.442775 
L 274.736139 296.279169 
L 274.909091 296.279169 
M 251.691569 292.348438 
L 250.376084 291.038194 
L 249.023912 291.038194 
L 246.565894 293.496211 
L 246.565894 291.12729 
L 246.392942 291.12729 
L 246.392942 296.279169 
L 246.565894 296.279169 
L 246.565894 293.732055 
L 249.086804 291.211146 
L 250.307951 291.211146 
L 251.565785 292.479462 
L 251.691569 292.348438 
M 267.0057 294.958443 
L 265.768829 296.190073 
L 263.258402 296.190073 
L 262.026773 294.958443 
L 262.026773 292.442775 
L 263.258402 291.211146 
L 265.768829 291.211146 
L 267.0057 292.442775 
L 267.0057 294.958443 
M 259.27526 294.958443 
L 258.03839 296.190073 
L 255.527963 296.190073 
L 254.296334 294.958443 
L 254.296334 292.442775 
L 255.527963 291.211146 
L 258.03839 291.211146 
L 259.27526 292.442775 
L 259.27526 294.958443 
M 227.064224 294.958443 
L 225.832595 296.190073 
L 224.606206 296.190073 
L 223.374577 294.958443 
L 223.374577 292.442775 
L 224.606206 291.211146 
L 225.832595 291.211146 
L 227.064224 292.442775 
L 227.064224 294.958443 
" clip-path="url(#p32ab649acd)" style="fill: #ffffff"/>
   </g>
  </g>
 </g>
 <defs>
  <clipPath id="p32ab649acd">
   <rect x="0" y="0" width="288" height="351.242854"/>
  </clipPath>
 </defs>
</svg>
