<svg width="40" height="42" viewBox="0 0 40 42" fill="none" xmlns="http://www.w3.org/2000/svg">
<g id="SVG" clip-path="url(#clip0_321_28)">
<path id="Vector" opacity="0.5" d="M37.7778 40.7223H24C22.8954 40.7223 22 39.8268 22 38.7223V20.5001C22 19.3955 22.8954 18.5001 24 18.5001H37.7778C38.8823 18.5001 39.7778 19.3955 39.7778 20.5001V38.7223C39.7778 39.8268 38.8823 40.7223 37.7778 40.7223Z" fill="#A7A7A7"/>
<path id="Vector_2" d="M23.2222 0.5C22.6699 0.5 22.2222 0.947715 22.2222 1.5V12.8333C22.2222 13.3856 22.6699 13.8333 23.2222 13.8333H39C39.5523 13.8333 40 13.3856 40 12.8333V1.5C40 0.947714 39.5523 0.5 39 0.5H23.2222ZM0 39.5C0 40.0523 0.447715 40.5 1 40.5H16.7778C17.3301 40.5 17.7778 40.0523 17.7778 39.5V28.1667C17.7778 27.6144 17.3301 27.1667 16.7778 27.1667H1C0.447716 27.1667 0 27.6144 0 28.1667V39.5ZM0 21.7222C0 22.2745 0.447715 22.7222 1 22.7222H16.7778C17.3301 22.7222 17.7778 22.2745 17.7778 21.7222V1.5C17.7778 0.947714 17.3301 0.5 16.7778 0.5H1C0.447716 0.5 0 0.947715 0 1.5V21.7222Z" fill="#D8D5FF"/>
</g>
<defs>
<clipPath id="clip0_321_28">
<rect width="40" height="41" fill="white" transform="translate(0 0.5)"/>
</clipPath>
</defs>
</svg>
