<svg width="46" height="70" viewBox="0 0 46 70" fill="none" xmlns="http://www.w3.org/2000/svg">
<g id="glow-mark">
<path id="Vector" fill-rule="evenodd" clip-rule="evenodd" d="M15.0721 65.1388C10.7708 63.4437 6.26742 62.5887 1.89887 61.8054C0.95795 61.6412 0.0843701 62.5577 0.0171615 63.8487C-0.117256 65.1408 0.555224 66.3223 1.42893 66.4865C5.66307 67.2405 10.0312 68.0476 14.131 69.6793C15.0047 70.0332 15.946 69.3046 16.2148 68.0513C16.4836 66.7989 15.9458 65.4936 15.0721 65.1388Z" fill="white"/>
<path id="Vector_2" fill-rule="evenodd" clip-rule="evenodd" d="M28.1097 41.1081C21.1872 31.1881 13.3911 22.5451 6.603 12.359C5.99812 11.4077 4.92278 11.3567 4.2507 12.2448C3.57861 13.1338 3.51167 14.6287 4.18375 15.5801C10.9718 25.7954 18.768 34.4669 25.6905 44.4161C26.3626 45.3447 27.4376 45.3579 28.1097 44.4443C28.7146 43.5317 28.7818 42.0369 28.1097 41.1081Z" fill="white"/>
<path id="Vector_3" fill-rule="evenodd" clip-rule="evenodd" d="M41.0819 2.95137C41.2835 8.6291 41.4847 14.3068 41.6864 19.9855C41.6864 21.2861 42.4933 22.2902 43.4342 22.2269C44.3751 22.1627 45.0468 21.0558 45.0468 19.7543C44.8452 14.0671 44.6439 8.38088 44.4423 2.69466C44.3751 1.39414 43.5685 0.396569 42.6276 0.467352C41.7538 0.538135 41.0147 1.65179 41.0819 2.95137Z" fill="white"/>
</g>
</svg>
