<svg width="46" height="70" viewBox="0 0 46 70" fill="none" xmlns="http://www.w3.org/2000/svg">
<path fill-rule="evenodd" clip-rule="evenodd" d="M15.2233 65.3237C10.8788 63.6116 6.33028 62.748 1.91792 61.9569C0.967558 61.7911 0.0852163 62.7167 0.0173336 64.0207C-0.118432 65.3257 0.560793 66.5191 1.44326 66.6849C5.71987 67.4465 10.1318 68.2616 14.2727 69.9097C15.1552 70.2671 16.1059 69.5313 16.3774 68.2654C16.6489 67.0004 16.1057 65.6821 15.2233 65.3237Z" fill="white"/>
<path fill-rule="evenodd" clip-rule="evenodd" d="M28.3916 41.052C21.3997 31.0325 13.5254 22.3028 6.66923 12.0145C6.05828 11.0536 4.97216 11.0021 4.29334 11.8992C3.6145 12.7971 3.54689 14.307 4.22571 15.2679C11.0818 25.5857 18.9562 34.3441 25.9482 44.3932C26.627 45.3311 27.7128 45.3444 28.3916 44.4217C29.0026 43.4999 29.0705 41.9901 28.3916 41.052Z" fill="white"/>
<path fill-rule="evenodd" clip-rule="evenodd" d="M41.494 2.51251C41.6976 8.24719 41.9008 13.9819 42.1045 19.7174C42.1045 21.0311 42.9195 22.0454 43.8698 21.9814C44.8202 21.9166 45.4986 20.7985 45.4986 19.484C45.295 13.7398 45.0917 7.99649 44.8881 2.25323C44.8202 0.939661 44.0055 -0.0679117 43.0552 0.00358116C42.1726 0.0750741 41.4261 1.1999 41.494 2.51251Z" fill="white"/>
</svg>
