<svg width="30" height="33" viewBox="0 0 30 33" fill="none" xmlns="http://www.w3.org/2000/svg">
<g clip-path="url(#clip0_195_444)">
<path opacity="0.5" d="M28.3334 32.0934H18C17.1716 32.0934 16.5 31.3789 16.5 30.4976V15.9581C16.5 15.0767 17.1716 14.3623 18 14.3623H28.3334C29.1617 14.3623 29.8334 15.0767 29.8334 15.9581V30.4976C29.8334 31.3789 29.1617 32.0934 28.3334 32.0934Z" fill="white"/>
<path d="M17.4167 0C17.0024 0 16.6667 0.357232 16.6667 0.797901V9.84075C16.6667 10.2814 17.0024 10.6387 17.4167 10.6387H29.25C29.6642 10.6387 30 10.2814 30 9.84075V0.7979C30 0.357231 29.6642 0 29.25 0H17.4167ZM0 31.1181C0 31.5588 0.335786 31.916 0.75 31.916H12.5833C12.9976 31.916 13.3333 31.5588 13.3333 31.1181V22.0753C13.3333 21.6346 12.9976 21.2774 12.5833 21.2774H0.75C0.335787 21.2774 0 21.6346 0 22.0753V31.1181ZM0 16.9332C0 17.3739 0.335786 17.7311 0.75 17.7311H12.5833C12.9976 17.7311 13.3333 17.3739 13.3333 16.9332V0.7979C13.3333 0.357231 12.9976 0 12.5833 0H0.75C0.335787 0 0 0.357232 0 0.797901V16.9332Z" fill="white"/>
</g>
<defs>
<clipPath id="clip0_195_444">
<rect width="30" height="32.7139" fill="white"/>
</clipPath>
</defs>
</svg>
