<svg width="344" height="231" viewBox="0 0 344 231" fill="none" xmlns="http://www.w3.org/2000/svg">
<path opacity="0.1" d="M1.26832 95.7717L0.00013663 228.87C-0.0103957 229.975 1.01568 230.869 2.29195 230.866L227.603 230.411C228.879 230.408 229.923 229.51 229.933 228.404L231.201 95.3066C231.212 94.2012 230.186 93.3072 228.909 93.3098L3.59828 93.7656C2.32201 93.7682 1.27885 94.6663 1.26832 95.7717Z" fill="white"/>
<path opacity="0.08" d="M2.15473 2.70312L1.44912 76.7575C1.43859 77.8629 3.00636 78.7558 4.95084 78.7519L110.574 78.5382C112.519 78.5343 114.104 77.635 114.114 76.5296L114.82 2.47522C114.83 1.36984 113.263 0.476935 111.318 0.480868L5.69459 0.694527C3.75011 0.69846 2.16526 1.59774 2.15473 2.70312Z" fill="#4A6CF7"/>
<path opacity="0.2" d="M133.944 3.43335L133.238 77.4878C133.228 78.5932 134.795 79.4861 136.74 79.4821L226.52 79.3005C228.464 79.2966 230.049 78.3973 230.06 77.2919L230.765 3.2375C230.776 2.13212 229.208 1.23922 227.264 1.24315L137.484 1.42476C135.539 1.42869 133.954 2.32798 133.944 3.43335Z" fill="white"/>
<path opacity="0.2" d="M244.885 2.19374L244.18 76.2482C244.169 77.3535 245.737 78.2464 247.681 78.2425L339.222 78.0573C341.166 78.0534 342.751 77.1541 342.762 76.0487L343.467 1.99433C343.478 0.888947 341.91 -0.00395799 339.965 -2.46378e-05L248.425 0.185146C246.481 0.189079 244.896 1.08836 244.885 2.19374Z" fill="#0065FF"/>
<path opacity="0.2" d="M245.418 96.7645L244.181 226.58C244.162 228.518 245.724 230.085 247.668 230.081L339.209 229.896C341.153 229.892 342.744 228.318 342.763 226.381L344 96.5651C344.018 94.6274 342.457 93.0598 340.513 93.0637L248.972 93.2489C247.028 93.2528 245.436 94.8268 245.418 96.7645Z" fill="white"/>
</svg>
