<svg width="70" height="70" viewBox="0 0 70 70" fill="none" xmlns="http://www.w3.org/2000/svg">
<g clip-path="url(#clip0_0_6)">
<path opacity="0.5" d="M52.7778 54.7222H39C37.8954 54.7222 37 53.8267 37 52.7222V34.5C37 33.3954 37.8954 32.5 39 32.5H52.7778C53.8823 32.5 54.7778 33.3954 54.7778 34.5V52.7222C54.7778 53.8267 53.8823 54.7222 52.7778 54.7222Z" fill="#001AFF"/>
<path d="M38.2222 14.5C37.6699 14.5 37.2222 14.9477 37.2222 15.5V26.8333C37.2222 27.3856 37.6699 27.8333 38.2222 27.8333H54C54.5523 27.8333 55 27.3856 55 26.8333V15.5C55 14.9477 54.5523 14.5 54 14.5H38.2222ZM15 53.5C15 54.0523 15.4477 54.5 16 54.5H31.7778C32.3301 54.5 32.7778 54.0523 32.7778 53.5V42.1667C32.7778 41.6144 32.3301 41.1667 31.7778 41.1667H16C15.4477 41.1667 15 41.6144 15 42.1667V53.5ZM15 35.7222C15 36.2745 15.4477 36.7222 16 36.7222H31.7778C32.3301 36.7222 32.7778 36.2745 32.7778 35.7222V15.5C32.7778 14.9477 32.3301 14.5 31.7778 14.5H16C15.4477 14.5 15 14.9477 15 15.5V35.7222Z" fill="#4A6CF7"/>
</g>
<defs>
<clipPath id="clip0_0_6">
<rect width="40" height="41" fill="white" transform="translate(15 14.5)"/>
</clipPath>
</defs>
</svg>
